HIERARCHY
ROOT hip
{
	OFFSET 0.000000 0.000000 0.000000 
	CHANNELS 6 Xposition Yposition Zposition Xrotation Zrotation Yrotation
	JOINT abdomen
	{
		OFFSET 0.000000 3.402643 0.000000 
		CHANNELS 3 Xrotation Zrotation Yrotation
		JOINT chest
		{
			OFFSET 0.000000 8.438565 -0.680529 
			CHANNELS 3 Xrotation Zrotation Yrotation
			JOINT neck
			{
				OFFSET 0.000000 10.207942 -0.272212 
				CHANNELS 3 Xrotation Zrotation Yrotation
				JOINT head
				{
					OFFSET 0.000000 3.130431 0.000000 
					CHANNELS 3 Xrotation Zrotation Yrotation
					End Site
					{
						OFFSET 0.000000 3.130435 0.000000 
					}
				}
			}
			JOINT lCollar
			{
				OFFSET 3.470700 6.669187 -0.816635 
				CHANNELS 3 Yrotation Zrotation Xrotation
				JOINT lShldr
				{
					OFFSET 3.198488 0.000000 0.000000 
					CHANNELS 3 Zrotation Yrotation Xrotation
					JOINT lForeArm
					{
						OFFSET 10.139888 0.000000 0.000000 
						CHANNELS 3 Yrotation Zrotation Xrotation
						JOINT lHand
						{
							OFFSET 8.370511 0.000000 0.000000 
							CHANNELS 3 Zrotation Yrotation Xrotation
							End Site
							{
								OFFSET 4.083176 0.000000 0.000000 
							}
						}
					}
				}
			}
			JOINT rCollar
			{
				OFFSET -3.470700 6.669187 -0.816635 
				CHANNELS 3 Yrotation Zrotation Xrotation
				JOINT rShldr
				{
					OFFSET -3.198488 0.000000 0.000000 
					CHANNELS 3 Zrotation Yrotation Xrotation
					JOINT rForeArm
					{
						OFFSET -10.139888 0.000000 0.000000 
						CHANNELS 3 Yrotation Zrotation Xrotation
						JOINT rHand
						{
							OFFSET -8.370511 0.000000 0.000000 
							CHANNELS 3 Zrotation Yrotation Xrotation
							End Site
							{
								OFFSET -4.083176 0.000000 0.000000 
							}
						}
					}
				}
			}
		}
	}
	JOINT lThigh
	{
		OFFSET 5.308129 -1.633274 1.361059 
		CHANNELS 3 Xrotation Zrotation Yrotation
		JOINT lShin
		{
			OFFSET -2.041588 -20.007561 0.000000 
			CHANNELS 3 Xrotation Zrotation Yrotation
			JOINT lFoot
			{
				OFFSET 0.000000 -19.190928 -1.224953 
				CHANNELS 3 Xrotation Yrotation Zrotation
				End Site
				{
					OFFSET 0.000000 -2.449906 4.627600 
				}
			}
		}
	}
	JOINT rThigh
	{
		OFFSET -5.308129 -1.633274 1.361059 
		CHANNELS 3 Xrotation Zrotation Yrotation
		JOINT rShin
		{
			OFFSET 2.041588 -20.007561 0.000000 
			CHANNELS 3 Xrotation Zrotation Yrotation
			JOINT rFoot
			{
				OFFSET 0.000000 -19.190928 -1.224953 
				CHANNELS 3 Xrotation Yrotation Zrotation
				End Site
				{
					OFFSET 0.000000 -2.449906 4.627600 
				}
			}
		}
	}
}
MOTION
Frames: 6
Frame Time: 0.016667
-2.941925 38.504749 -46.107948 47.501598 -3.230170 10.933700 -13.256400 3.907740 -7.608250 21.621700 8.016210 -3.434160 -26.760099 -6.170530 6.142090 -0.544917 1.780990 1.539170 2.000000 -2.000000 0.000000 -0.957833 -100.739998 100.539001 19.365499 -0.343829 0.045395 0.047236 -0.028777 -147.253998 -2.000000 2.000000 0.000000 89.473801 35.479099 -134.731003 -79.844299 0.238956 0.134582 179.906006 179.893997 1.867400 -65.963928 -16.688202 5.119338 46.472973 0.556288 4.084256 -22.586946 19.827829 7.941551 -84.303093 -4.582132 -15.846108 17.798985 -2.525473 -1.550078 21.307777 5.023392 -1.072588 
-2.899708 38.468124 -46.453720 47.184502 -3.003170 11.001700 -13.381000 3.903100 -7.681370 21.365601 8.133970 -3.498590 -26.476000 -6.281830 6.077040 -0.476528 1.790750 1.521000 2.000000 -2.000000 0.000000 -0.726386 -100.828003 99.621399 19.062700 -0.344067 0.044713 0.046872 -0.026703 -146.501999 -2.000000 2.000000 0.000000 89.453598 35.254299 -134.595001 -79.717300 0.239254 0.134528 179.906006 179.893997 1.847870 -66.178841 -16.965578 5.205771 46.668396 0.566703 4.090788 -22.493814 19.758055 7.753931 -84.374359 -4.619561 -12.973013 17.785618 -2.610148 -1.523193 23.246069 3.715046 -0.913417 
-2.836282 38.429966 -46.787476 46.984402 -2.927580 10.792200 -13.358100 3.870310 -7.740340 21.513500 8.114120 -3.517250 -26.462299 -6.439130 6.285030 -0.486270 1.703130 1.595940 2.000000 -2.000000 0.000000 -0.974772 -100.633003 99.113503 18.799000 -0.344271 0.044118 0.046489 -0.024327 -145.641998 -2.000000 2.000000 0.000000 89.785500 34.980999 -134.682999 -80.068901 0.238428 0.134675 179.906006 179.895004 2.131080 -66.561028 -17.022253 5.190661 46.844479 0.561211 4.091028 -21.968914 19.719484 7.454543 -84.563606 -4.343405 -10.160688 17.644339 -2.683702 -1.476760 25.153072 3.148515 -1.068195 
-2.765902 38.437290 -47.117638 46.305302 -2.863010 10.464300 -13.158100 3.957070 -7.638410 21.622200 8.182200 -3.470150 -26.745399 -6.873460 6.564760 -0.603470 1.469480 1.630830 2.000000 -2.000000 0.000000 -0.962956 -100.642998 98.527397 18.632999 -0.344398 0.043743 0.046331 -0.023272 -145.261993 -2.000000 2.000000 0.000000 90.098503 34.522999 -135.250000 -80.772003 0.236774 0.134955 179.906998 179.895996 2.570530 -66.405998 -16.866287 5.262579 47.128613 0.557085 4.107268 -21.353418 19.777231 7.175784 -84.136795 -3.913120 -7.487693 17.431313 -2.710972 -1.444586 26.695520 2.832008 -1.336861 
-2.708823 38.349140 -47.413651 46.286900 -2.694820 10.084900 -13.122100 3.972350 -7.567920 21.878700 8.181450 -3.404710 -26.441900 -7.207050 6.714970 -0.437417 1.352640 1.653940 2.000000 -2.000000 0.000000 -1.665970 -100.633003 98.527397 18.369301 -0.344598 0.043146 0.046075 -0.021458 -144.606995 -2.000000 2.000000 0.000000 90.205902 35.186298 -134.809998 -80.049400 0.238474 0.134667 179.906006 179.895004 2.062720 -66.986633 -16.666929 5.843486 47.510906 0.527000 4.118247 -21.119854 19.186100 6.711323 -84.720894 -3.584909 -4.505929 17.904724 -2.781574 -1.447650 27.907839 1.530070 -0.895681 
-2.635477 38.293362 -47.709663 46.021301 -2.225420 9.570460 -12.971900 3.857770 -7.564450 22.155399 8.287830 -3.411660 -25.914101 -7.164250 6.768000 -0.183425 1.401270 1.714960 2.000000 -2.000000 0.000000 -1.640920 -100.125000 98.527199 18.457199 -0.344531 0.043345 0.046119 -0.021783 -144.723999 -2.000000 2.000000 0.000000 90.810898 34.561600 -135.016006 -81.103996 0.235991 0.135079 179.906998 179.895996 2.746310 -67.362961 -16.531942 6.555344 47.989357 0.534681 4.111675 -20.992573 19.270947 6.591386 -85.033279 -3.208148 -1.263655 18.580774 -2.828517 -1.483683 28.740961 1.315846 -1.128215 
